<svg xmlns="http://www.w3.org/2000/svg" width="42" height="42" fill="none" viewBox="0 0 42 42">
  <path fill="#64FFDA" d="M21.823 30.144c-1.28 0-2.464-.208-3.552-.624a8.71 8.71 0 0 1-2.808-1.8 8.413 8.413 0 0 1-1.848-2.712c-.432-1.04-.648-2.176-.648-3.408 0-1.232.216-2.368.648-3.408a8.232 8.232 0 0 1 1.872-2.712 8.39 8.39 0 0 1 2.808-1.776c1.088-.432 2.272-.648 3.552-.648 1.28 0 2.448.2 3.504.6a6.98 6.98 0 0 1 2.736 1.824l-1.104 1.128c-.704-.704-1.48-1.208-2.328-1.512a8.048 8.048 0 0 0-2.736-.456c-1.04 0-2 .176-2.88.528a6.716 6.716 0 0 0-2.28 1.464 6.868 6.868 0 0 0-1.512 2.208c-.352.832-.528 1.752-.528 2.76 0 .992.176 1.912.528 2.76a7.153 7.153 0 0 0 1.512 2.232 7.235 7.235 0 0 0 2.28 1.464 7.94 7.94 0 0 0 2.856.504c.96 0 1.864-.144 2.712-.432.864-.288 1.656-.776 2.376-1.464l1.008 1.344a8.257 8.257 0 0 1-2.808 1.608 10.7 10.7 0 0 1-3.36.528Zm4.464-2.352V21.6h1.704v6.408l-1.704-.216Z"/>
  <path stroke="#64FFDA" stroke-width="2" d="M4 30.412V11.588l17-9.444 17 9.444v18.824l-17 9.444-17-9.444Z"/>
</svg>
